Genre:Drama | Thriller
Language: English
IMDB:http://www.imdb.com/title/tt1440728/
Source:PROPER.1080p.Bluray.x264.-CBGB



Format : Matroska
File size : 1.94 GiB
Duration : 1h 44mn
Overall bit rate : 2 654 Kbps


Video
Format settings, CABAC : Yes
Format settings, ReFrames : 4 frames
Codec ID : V_MPEG4/ISO/AVC
Duration : 1h 44mn
Bit rate : 2 300 Kbps
Width : 1 280 pixels
Height : 544 pixels
Display aspect ratio : 2.35:1
Frame rate mode : Variable
Frame rate : 23.976 fps
Color space : YUV
Chroma subsampling : 4:2:0
Bit depth : 8 bits
Scan type : Progressive
Bits/(Pixel*Frame) : 0.138
Stream size : 1.62 GiB (84%)
Writing library : x264

Audio
ID : 2
Format : AC-3
Format/Info : Audio Coding 3
Mode extension : CM (complete main)
Codec ID : A_AC3
Duration : 1h 44mn
Bit rate mode : Constant
Bit rate : 384 Kbps
Channel(s) : 6 channels
Channel positions : Front: L C R, Side: L R, LFE
Sampling rate : 48.0 KHz
Bit depth : 16 bits
Video delay : -1mn 5s
Stream size : 288 MiB (14%)
Language : English



Plot
An assassin hides out in Italy for one last assignment.










================================== 
http://thepiratebay.org/user/hiest
==================================











Screenshots:
 
http://rapidhdd.com/images/458932vlcsnap-2010-12-16-16h10m19s121.png
 
http://www.rapidhdd.com/images/375492vlcsnap-2010-12-16-16h10m32s9.png
 
http://www.rapidhdd.com/images/975876vlcsnap-2010-12-16-16h10m46s128.png
 
http://www.rapidhdd.com/images/551074vlcsnap-2010-12-16-16h12m14s248.png